<svg width="376" height="376" viewBox="0 0 376 376" fill="none" xmlns="http://www.w3.org/2000/svg">
<path fill-rule="evenodd" clip-rule="evenodd" d="M195.5 0C199.642 0 203 3.35786 203 7.5L203 368.5C203 372.642 199.642 376 195.5 376C191.358 376 188 372.642 188 368.5L188 7.5C188 3.35786 191.358 0 195.5 0Z" fill="black"/>
<path fill-rule="evenodd" clip-rule="evenodd" d="M0 180.5C0 176.358 3.35786 173 7.5 173H368.5C372.642 173 376 176.358 376 180.5C376 184.642 372.642 188 368.5 188H7.5C3.35786 188 0 184.642 0 180.5Z" fill="black"/>
</svg>
